<svg id="Layer_1" data-name="Layer 1" xmlns="http://www.w3.org/2000/svg" viewBox="0 0 56.21 11.38"><defs><style>.cls-1{fill:#02497d;}</style></defs><title>logo</title><path class="cls-1" d="M.17,11a.41.41,0,0,1-.12-.3V.32A.42.42,0,0,1,.17,0,.42.42,0,0,1,.48-.11H8.54A.42.42,0,0,1,8.85,0,.43.43,0,0,1,9,.32V2.75a.44.44,0,0,1-.44.44H4V4.37H8.22a.42.42,0,0,1,.31.13.42.42,0,0,1,.12.3V7.22a.41.41,0,0,1-.12.3.42.42,0,0,1-.31.13H4v3a.44.44,0,0,1-.44.43h-3A.42.42,0,0,1,.17,11Z"/><path class="cls-1" d="M11.53,10.15A4.1,4.1,0,0,1,10,6.93c0-.29,0-.75,0-1.39s0-1.13,0-1.43a4.45,4.45,0,0,1,.73-2.36A4.3,4.3,0,0,1,12.61.24a6.88,6.88,0,0,1,2.75-.51,6.92,6.92,0,0,1,2.75.51A4.22,4.22,0,0,1,20,1.75a4.28,4.28,0,0,1,.73,2.36c0,.6,0,1.08,0,1.43s0,.81,0,1.39a4.07,4.07,0,0,1-1.52,3.22,6.11,6.11,0,0,1-3.82,1.1A6.14,6.14,0,0,1,11.53,10.15Zm4.68-2.34a1.39,1.39,0,0,0,.33-1c0-.61,0-1.07,0-1.36s0-.75,0-1.32a1.39,1.39,0,0,0-.33-1,1.18,1.18,0,0,0-.85-.32,1.16,1.16,0,0,0-.85.32,1.44,1.44,0,0,0-.34,1c0,.29,0,.73,0,1.32s0,1.06,0,1.36a1.44,1.44,0,0,0,.33,1,1.17,1.17,0,0,0,.86.32A1.13,1.13,0,0,0,16.21,7.81Z"/><path class="cls-1" d="M23.41,10.15a4.07,4.07,0,0,1-1.52-3.22c0-.29,0-.75,0-1.39s0-1.13,0-1.43a4.36,4.36,0,0,1,.72-2.36A4.3,4.3,0,0,1,24.48.24a6.92,6.92,0,0,1,2.75-.51A6.88,6.88,0,0,1,30,.24a4.3,4.3,0,0,1,1.87,1.51,4.36,4.36,0,0,1,.72,2.36c0,.6,0,1.08,0,1.43s0,.81,0,1.39a4.07,4.07,0,0,1-1.52,3.22,6.09,6.09,0,0,1-3.82,1.1A6.11,6.11,0,0,1,23.41,10.15Zm4.68-2.34a1.44,1.44,0,0,0,.32-1c0-.61,0-1.07,0-1.36s0-.75,0-1.32a1.39,1.39,0,0,0-.33-1,1.29,1.29,0,0,0-1.7,0,1.39,1.39,0,0,0-.33,1c0,.29,0,.73,0,1.32s0,1.06,0,1.36a1.44,1.44,0,0,0,.32,1,1.32,1.32,0,0,0,1.72,0Z"/><path class="cls-1" d="M34.17,11a.41.41,0,0,1-.12-.3V.32a.42.42,0,0,1,.12-.3.42.42,0,0,1,.31-.13h4.61a6.77,6.77,0,0,1,2.7.51,4.42,4.42,0,0,1,1.89,1.51,4.23,4.23,0,0,1,.75,2.38c0,.6,0,1,0,1.22s0,.59,0,1.16A4.19,4.19,0,0,1,42.93,10a5.94,5.94,0,0,1-3.76,1.1H34.48A.42.42,0,0,1,34.17,11Zm4.92-3a1.25,1.25,0,0,0,.9-.33,1.37,1.37,0,0,0,.38-1q0-.45,0-1.2c0-.5,0-.89,0-1.18a1.27,1.27,0,0,0-.41-1A1.44,1.44,0,0,0,39,3h-1V8Z"/><path class="cls-1" d="M48.24,11a.38.38,0,0,1-.13-.3V7.51L44.51.39a.37.37,0,0,1,0-.15.35.35,0,0,1,.1-.25.39.39,0,0,1,.25-.1h3a.68.68,0,0,1,.44.14.87.87,0,0,1,.23.26l1.6,3.22L51.71.29A.87.87,0,0,1,51.94,0a.68.68,0,0,1,.44-.14h3a.37.37,0,0,1,.25.1.35.35,0,0,1,.1.25.37.37,0,0,1,0,.15l-3.6,7.12v3.15a.44.44,0,0,1-.43.43H48.54A.38.38,0,0,1,48.24,11Z"/></svg>